<mxfile host="app.diagrams.net" modified="2024-04-24T12:48:04.637Z" agent="Mozilla/5.0 (Windows NT 10.0; Win64; x64; rv:125.0) Gecko/20100101 Firefox/125.0" etag="tFEj7Yflezq88-sTNJag" version="24.3.0" type="github">
  <diagram id="C5RBs43oDa-KdzZeNtuy" name="Page-1">
    <mxGraphModel dx="925" dy="364" grid="1" gridSize="10" guides="1" tooltips="1" connect="1" arrows="1" fold="1" page="1" pageScale="1" pageWidth="500" pageHeight="200" math="0" shadow="0">
      <root>
        <mxCell id="WIyWlLk6GJQsqaUBKTNV-0" />
        <mxCell id="WIyWlLk6GJQsqaUBKTNV-1" parent="WIyWlLk6GJQsqaUBKTNV-0" />
        <mxCell id="sUJrWVIuPAr-GtkHxzEH-15" style="edgeStyle=orthogonalEdgeStyle;rounded=1;orthogonalLoop=1;jettySize=auto;html=1;exitX=1;exitY=0.5;exitDx=0;exitDy=0;entryX=0;entryY=0.5;entryDx=0;entryDy=0;labelBackgroundColor=none;fontColor=default;shadow=0;fontSize=15;" parent="WIyWlLk6GJQsqaUBKTNV-1" source="WIyWlLk6GJQsqaUBKTNV-3" target="sUJrWVIuPAr-GtkHxzEH-0" edge="1">
          <mxGeometry relative="1" as="geometry" />
        </mxCell>
        <mxCell id="WIyWlLk6GJQsqaUBKTNV-3" value="pulsed noise" style="rounded=1;whiteSpace=wrap;html=1;fontSize=15;glass=0;strokeWidth=1;shadow=0;labelBackgroundColor=none;" parent="WIyWlLk6GJQsqaUBKTNV-1" vertex="1">
          <mxGeometry x="120" y="440" width="120" height="40" as="geometry" />
        </mxCell>
        <mxCell id="sUJrWVIuPAr-GtkHxzEH-16" style="edgeStyle=orthogonalEdgeStyle;rounded=1;orthogonalLoop=1;jettySize=auto;html=1;exitX=1;exitY=0.5;exitDx=0;exitDy=0;entryX=0;entryY=0.5;entryDx=0;entryDy=0;labelBackgroundColor=none;fontColor=default;shadow=0;fontSize=15;" parent="WIyWlLk6GJQsqaUBKTNV-1" source="sUJrWVIuPAr-GtkHxzEH-0" target="sUJrWVIuPAr-GtkHxzEH-1" edge="1">
          <mxGeometry relative="1" as="geometry" />
        </mxCell>
        <mxCell id="sUJrWVIuPAr-GtkHxzEH-0" value="WHIS" style="rounded=1;whiteSpace=wrap;html=1;labelBackgroundColor=none;shadow=0;fontSize=15;" parent="WIyWlLk6GJQsqaUBKTNV-1" vertex="1">
          <mxGeometry x="280" y="440" width="120" height="40" as="geometry" />
        </mxCell>
        <mxCell id="sUJrWVIuPAr-GtkHxzEH-27" style="edgeStyle=orthogonalEdgeStyle;rounded=1;orthogonalLoop=1;jettySize=auto;html=1;exitX=1;exitY=0.25;exitDx=0;exitDy=0;entryX=0;entryY=0.25;entryDx=0;entryDy=0;labelBackgroundColor=none;fontColor=default;shadow=0;fontSize=15;" parent="WIyWlLk6GJQsqaUBKTNV-1" source="sUJrWVIuPAr-GtkHxzEH-1" target="sUJrWVIuPAr-GtkHxzEH-20" edge="1">
          <mxGeometry relative="1" as="geometry" />
        </mxCell>
        <mxCell id="sUJrWVIuPAr-GtkHxzEH-28" style="edgeStyle=orthogonalEdgeStyle;rounded=1;orthogonalLoop=1;jettySize=auto;html=1;exitX=1;exitY=0.75;exitDx=0;exitDy=0;entryX=0;entryY=0.75;entryDx=0;entryDy=0;labelBackgroundColor=none;fontColor=default;shadow=0;fontSize=15;" parent="WIyWlLk6GJQsqaUBKTNV-1" source="sUJrWVIuPAr-GtkHxzEH-1" target="sUJrWVIuPAr-GtkHxzEH-20" edge="1">
          <mxGeometry relative="1" as="geometry" />
        </mxCell>
        <mxCell id="sUJrWVIuPAr-GtkHxzEH-1" value="binaural synthesis" style="rounded=1;whiteSpace=wrap;html=1;labelBackgroundColor=none;shadow=0;fontSize=15;" parent="WIyWlLk6GJQsqaUBKTNV-1" vertex="1">
          <mxGeometry x="440" y="440" width="120" height="40" as="geometry" />
        </mxCell>
        <mxCell id="sUJrWVIuPAr-GtkHxzEH-18" style="edgeStyle=orthogonalEdgeStyle;rounded=1;orthogonalLoop=1;jettySize=auto;html=1;exitX=1;exitY=0.25;exitDx=0;exitDy=0;entryX=0;entryY=0.5;entryDx=0;entryDy=0;labelBackgroundColor=none;fontColor=default;shadow=0;fontSize=15;" parent="WIyWlLk6GJQsqaUBKTNV-1" source="sUJrWVIuPAr-GtkHxzEH-2" target="sUJrWVIuPAr-GtkHxzEH-3" edge="1">
          <mxGeometry relative="1" as="geometry" />
        </mxCell>
        <mxCell id="sUJrWVIuPAr-GtkHxzEH-19" style="edgeStyle=orthogonalEdgeStyle;rounded=1;orthogonalLoop=1;jettySize=auto;html=1;exitX=1;exitY=0.75;exitDx=0;exitDy=0;entryX=0;entryY=0.5;entryDx=0;entryDy=0;labelBackgroundColor=none;fontColor=default;shadow=0;fontSize=15;" parent="WIyWlLk6GJQsqaUBKTNV-1" source="sUJrWVIuPAr-GtkHxzEH-2" target="sUJrWVIuPAr-GtkHxzEH-4" edge="1">
          <mxGeometry relative="1" as="geometry" />
        </mxCell>
        <mxCell id="sUJrWVIuPAr-GtkHxzEH-2" value="binaural synthesis" style="rounded=1;whiteSpace=wrap;html=1;labelBackgroundColor=none;shadow=0;fontSize=15;" parent="WIyWlLk6GJQsqaUBKTNV-1" vertex="1">
          <mxGeometry x="280" y="320" width="120" height="40" as="geometry" />
        </mxCell>
        <mxCell id="sUJrWVIuPAr-GtkHxzEH-35" style="edgeStyle=orthogonalEdgeStyle;rounded=1;orthogonalLoop=1;jettySize=auto;html=1;exitX=1;exitY=0.5;exitDx=0;exitDy=0;entryX=0;entryY=0.25;entryDx=0;entryDy=0;labelBackgroundColor=none;fontColor=default;shadow=0;fontSize=15;" parent="WIyWlLk6GJQsqaUBKTNV-1" source="sUJrWVIuPAr-GtkHxzEH-3" target="sUJrWVIuPAr-GtkHxzEH-22" edge="1">
          <mxGeometry relative="1" as="geometry" />
        </mxCell>
        <mxCell id="sUJrWVIuPAr-GtkHxzEH-3" value="WHIS" style="rounded=1;whiteSpace=wrap;html=1;labelBackgroundColor=none;shadow=0;fontSize=15;" parent="WIyWlLk6GJQsqaUBKTNV-1" vertex="1">
          <mxGeometry x="440" y="290" width="120" height="40" as="geometry" />
        </mxCell>
        <mxCell id="sUJrWVIuPAr-GtkHxzEH-36" style="edgeStyle=orthogonalEdgeStyle;rounded=1;orthogonalLoop=1;jettySize=auto;html=1;exitX=1;exitY=0.5;exitDx=0;exitDy=0;entryX=0;entryY=0.75;entryDx=0;entryDy=0;labelBackgroundColor=none;fontColor=default;shadow=0;fontSize=15;" parent="WIyWlLk6GJQsqaUBKTNV-1" source="sUJrWVIuPAr-GtkHxzEH-4" target="sUJrWVIuPAr-GtkHxzEH-22" edge="1">
          <mxGeometry relative="1" as="geometry" />
        </mxCell>
        <mxCell id="sUJrWVIuPAr-GtkHxzEH-4" value="WHIS" style="rounded=1;whiteSpace=wrap;html=1;labelBackgroundColor=none;shadow=0;fontSize=15;" parent="WIyWlLk6GJQsqaUBKTNV-1" vertex="1">
          <mxGeometry x="440" y="350" width="120" height="40" as="geometry" />
        </mxCell>
        <mxCell id="sUJrWVIuPAr-GtkHxzEH-29" style="edgeStyle=orthogonalEdgeStyle;rounded=1;orthogonalLoop=1;jettySize=auto;html=1;exitX=1;exitY=0.25;exitDx=0;exitDy=0;entryX=0;entryY=0.25;entryDx=0;entryDy=0;labelBackgroundColor=none;fontColor=default;shadow=0;fontSize=15;" parent="WIyWlLk6GJQsqaUBKTNV-1" source="sUJrWVIuPAr-GtkHxzEH-20" target="sUJrWVIuPAr-GtkHxzEH-23" edge="1">
          <mxGeometry relative="1" as="geometry" />
        </mxCell>
        <mxCell id="sUJrWVIuPAr-GtkHxzEH-30" style="edgeStyle=orthogonalEdgeStyle;rounded=1;orthogonalLoop=1;jettySize=auto;html=1;exitX=1;exitY=0.75;exitDx=0;exitDy=0;entryX=0;entryY=0.75;entryDx=0;entryDy=0;labelBackgroundColor=none;fontColor=default;shadow=0;fontSize=15;" parent="WIyWlLk6GJQsqaUBKTNV-1" source="sUJrWVIuPAr-GtkHxzEH-20" target="sUJrWVIuPAr-GtkHxzEH-23" edge="1">
          <mxGeometry relative="1" as="geometry" />
        </mxCell>
        <mxCell id="sUJrWVIuPAr-GtkHxzEH-20" value="HpTF Equalization" style="rounded=1;whiteSpace=wrap;html=1;labelBackgroundColor=none;shadow=0;fontSize=15;" parent="WIyWlLk6GJQsqaUBKTNV-1" vertex="1">
          <mxGeometry x="600" y="440" width="120" height="40" as="geometry" />
        </mxCell>
        <mxCell id="sUJrWVIuPAr-GtkHxzEH-26" style="edgeStyle=orthogonalEdgeStyle;rounded=1;orthogonalLoop=1;jettySize=auto;html=1;exitX=1;exitY=0.5;exitDx=0;exitDy=0;entryX=0;entryY=0.5;entryDx=0;entryDy=0;labelBackgroundColor=none;fontColor=default;shadow=0;fontSize=15;" parent="WIyWlLk6GJQsqaUBKTNV-1" source="sUJrWVIuPAr-GtkHxzEH-21" target="sUJrWVIuPAr-GtkHxzEH-2" edge="1">
          <mxGeometry relative="1" as="geometry" />
        </mxCell>
        <mxCell id="sUJrWVIuPAr-GtkHxzEH-21" value="pulsed noise" style="rounded=1;whiteSpace=wrap;html=1;fontSize=15;glass=0;strokeWidth=1;shadow=0;labelBackgroundColor=none;" parent="WIyWlLk6GJQsqaUBKTNV-1" vertex="1">
          <mxGeometry x="120" y="320" width="120" height="40" as="geometry" />
        </mxCell>
        <mxCell id="sUJrWVIuPAr-GtkHxzEH-31" style="edgeStyle=orthogonalEdgeStyle;rounded=1;orthogonalLoop=1;jettySize=auto;html=1;exitX=1;exitY=0.25;exitDx=0;exitDy=0;entryX=0;entryY=0.25;entryDx=0;entryDy=0;labelBackgroundColor=none;fontColor=default;shadow=0;fontSize=15;" parent="WIyWlLk6GJQsqaUBKTNV-1" source="sUJrWVIuPAr-GtkHxzEH-22" target="sUJrWVIuPAr-GtkHxzEH-24" edge="1">
          <mxGeometry relative="1" as="geometry" />
        </mxCell>
        <mxCell id="sUJrWVIuPAr-GtkHxzEH-34" style="edgeStyle=orthogonalEdgeStyle;rounded=1;orthogonalLoop=1;jettySize=auto;html=1;exitX=1;exitY=0.75;exitDx=0;exitDy=0;entryX=0;entryY=0.75;entryDx=0;entryDy=0;labelBackgroundColor=none;fontColor=default;shadow=0;fontSize=15;" parent="WIyWlLk6GJQsqaUBKTNV-1" source="sUJrWVIuPAr-GtkHxzEH-22" target="sUJrWVIuPAr-GtkHxzEH-24" edge="1">
          <mxGeometry relative="1" as="geometry" />
        </mxCell>
        <mxCell id="sUJrWVIuPAr-GtkHxzEH-22" value="HpTF Equalization" style="rounded=1;whiteSpace=wrap;html=1;labelBackgroundColor=none;shadow=0;fontSize=15;" parent="WIyWlLk6GJQsqaUBKTNV-1" vertex="1">
          <mxGeometry x="600" y="320" width="120" height="40" as="geometry" />
        </mxCell>
        <mxCell id="sUJrWVIuPAr-GtkHxzEH-23" value="Headphones" style="rounded=1;whiteSpace=wrap;html=1;labelBackgroundColor=none;shadow=0;fontSize=15;" parent="WIyWlLk6GJQsqaUBKTNV-1" vertex="1">
          <mxGeometry x="760" y="440" width="120" height="40" as="geometry" />
        </mxCell>
        <mxCell id="sUJrWVIuPAr-GtkHxzEH-24" value="Headphones" style="rounded=1;whiteSpace=wrap;html=1;labelBackgroundColor=none;shadow=0;fontSize=15;" parent="WIyWlLk6GJQsqaUBKTNV-1" vertex="1">
          <mxGeometry x="760" y="320" width="120" height="40" as="geometry" />
        </mxCell>
        <mxCell id="2XWpZSwJOmXR_3aJg2Dl-3" value="&lt;h1 style=&quot;margin-top: 0px;&quot;&gt;Variant A&lt;/h1&gt;" style="text;html=1;whiteSpace=wrap;overflow=hidden;rounded=0;" parent="WIyWlLk6GJQsqaUBKTNV-1" vertex="1">
          <mxGeometry x="120" y="270" width="120" height="40" as="geometry" />
        </mxCell>
        <mxCell id="2XWpZSwJOmXR_3aJg2Dl-4" value="&lt;h1 style=&quot;margin-top: 0px;&quot;&gt;Variant B&lt;br&gt;&lt;/h1&gt;" style="text;html=1;whiteSpace=wrap;overflow=hidden;rounded=0;" parent="WIyWlLk6GJQsqaUBKTNV-1" vertex="1">
          <mxGeometry x="120" y="390" width="120" height="40" as="geometry" />
        </mxCell>
      </root>
    </mxGraphModel>
  </diagram>
</mxfile>
